<?xml version="1.0" encoding="iso-8859-1"?>
<!-- Generator: Adobe Illustrator 16.0.0, SVG Export Plug-In . SVG Version: 6.00 Build 0)  -->
<!DOCTYPE svg PUBLIC "-//W3C//DTD SVG 1.1//EN" "http://www.w3.org/Graphics/SVG/1.1/DTD/svg11.dtd">
<svg version="1.1" id="Layer_1" xmlns="http://www.w3.org/2000/svg" xmlns:xlink="http://www.w3.org/1999/xlink" x="0px" y="0px"
	 width="75px" height="40px" viewBox="0 0 75 40" style="enable-background:new 0 0 75 40;" xml:space="preserve">
<path style="fill-rule:evenodd;clip-rule:evenodd;fill:#2CAAE1;" d="M16.353,5.595c-0.321-1.07-0.714-2.116-1.068-3.175
	c-0.251-0.751-0.554-1.484-0.758-2.251c0.093-0.016,0.162,0.037,0.24,0.074c0.436,0.21,0.857,0.443,1.281,0.676
	c0.635,0.349,1.289,0.662,1.931,0.999c1.446,0.759,2.904,1.498,4.344,2.271c0.636,0.341,1.281,0.664,1.921,0.998
	c1.475,0.769,2.947,1.541,4.422,2.307c0.567,0.294,1.14,0.576,1.705,0.878c1.428,0.764,2.87,1.5,4.307,2.248
	c0.931,0.484,1.861,0.968,2.792,1.452c0.001,0.029,0.002,0.059,0.003,0.087c-0.042,0.005-0.094-0.004-0.125,0.019
	c-0.448,0.323-0.892,0.65-1.338,0.976c-0.401,0.292-0.787,0.608-1.196,0.883c-0.386,0.26-0.764,0.534-1.147,0.797
	c-0.37,0.255-0.718,0.548-1.09,0.808c-0.638,0.445-1.258,0.916-1.892,1.367c-0.553,0.393-1.134,0.75-1.667,1.167
	c-0.859,0.672-1.756,1.29-2.64,1.927c-0.481,0.346-0.956,0.703-1.446,1.038c-0.783,0.535-1.534,1.114-2.299,1.674
	c-0.062,0.046-0.13,0.049-0.201,0.012c-0.126-0.209-0.082-0.501-0.315-0.661c-0.209-0.45-0.343-0.928-0.506-1.396
	c-0.661-1.895-1.316-3.792-1.971-5.689c-0.979-2.837-1.955-5.675-2.933-8.512c-0.082-0.238-0.12-0.494-0.266-0.708
	c-0.005-0.029-0.011-0.057-0.016-0.085C16.436,5.7,16.424,5.635,16.353,5.595z M22.214,12.898c-0.101,0.26-0.104,0.298-0.03,0.385
	c0.101,0.12,0.239,0.09,0.36,0.072c0.551-0.086,0.713-0.291,0.706-0.86c0-0.043,0.003-0.087-0.005-0.128
	c-0.008-0.039-0.03-0.075-0.048-0.119c-0.117,0.004-0.229-0.037-0.336,0.027c-0.012,0.007-0.021,0.02-0.029,0.03
	C22.798,12.975,22.785,12.988,22.214,12.898z M21.828,12.213c0.063-0.09,0.036-0.179,0.04-0.262
	c0.015-0.373,0.018-0.377,0.389-0.397c0.069-0.003,0.145,0.012,0.202-0.06c0.013-0.118,0.053-0.245-0.041-0.355
	c-0.839-0.044-1.053,0.199-0.942,1.076C21.595,12.257,21.716,12.261,21.828,12.213z"/>
<path style="fill-rule:evenodd;clip-rule:evenodd;fill:#D81B5E;" d="M0.487,40.17c0.458-1.349,0.917-2.699,1.375-4.049
	c0.655-1.935,1.308-3.87,1.962-5.806c0.063-0.189,0.127-0.379,0.191-0.568c0.136-0.05,0.08-0.165,0.086-0.259l0,0
	c0.136-0.049,0.08-0.164,0.088-0.257h0c0.132-0.148,0.187-0.322,0.171-0.519l0-0.001c0.136-0.049,0.078-0.164,0.088-0.256l0,0
	c0.135-0.05,0.078-0.165,0.088-0.258l0,0c0.113-0.06,0.129-0.18,0.164-0.282c0.209-0.615,0.4-1.238,0.618-1.851
	c0.249-0.702,0.435-1.426,0.761-2.101c0.331,0.049,0.615,0.264,0.958,0.265c-0.003,0.276-0.182,0.545-0.04,0.836
	c0.121,0.033,0.242,0.052,0.354-0.014c0.101-0.185-0.076-0.411,0.119-0.563c0.029,0.002,0.06-0.004,0.085,0.007
	c0.417,0.181,0.813,0.413,1.274,0.474c0.008,0.001,0.013,0.024,0.019,0.038c-0.137,0.015-0.283-0.039-0.42,0.05
	c-0.004,0.058-0.01,0.112-0.012,0.168c-0.002,0.057,0.002,0.114-0.001,0.171c-0.016,0.249-0.053,0.281-0.305,0.303
	c-0.123,0.01-0.257-0.045-0.382,0.066c0.025,0.109-0.054,0.241,0.074,0.363c0.129,0,0.271,0.002,0.412,0
	c0.3-0.006,0.433-0.123,0.557-0.414c0.087-0.205,0.07-0.413,0.078-0.624c0.117-0.007,0.217,0.034,0.325,0.079
	c0.833,0.344,1.662,0.7,2.501,1.026c1.271,0.494,2.531,1.018,3.799,1.523c0.598,0.238,1.193,0.491,1.791,0.727
	c1.335,0.526,2.661,1.074,3.995,1.601c0.405,0.16,0.811,0.319,1.215,0.478c-0.001,0.029-0.002,0.058-0.003,0.085
	c-0.1,0.003-0.191,0.019-0.288,0.063c-0.708,0.318-1.422,0.625-2.132,0.939c-1.328,0.588-2.653,1.184-3.984,1.765
	c-0.363,0.158-0.709,0.359-1.078,0.499c-0.992,0.374-1.942,0.841-2.918,1.25c-0.795,0.333-1.573,0.704-2.363,1.05
	c-1.28,0.562-2.564,1.113-3.843,1.674c-1.074,0.471-2.145,0.951-3.218,1.424c-0.348,0.152-0.712,0.274-1.048,0.451
	c-0.31,0.163-0.676,0.208-0.943,0.456C0.6,40.176,0.543,40.173,0.487,40.17z"/>
<path style="fill-rule:evenodd;clip-rule:evenodd;fill:#F7D035;" d="M61.355,0.345c0.132,0.613,0.367,1.194,0.563,1.786
	c1.249,3.772,2.506,7.541,3.763,11.311c0.013,0.037,0.046,0.067,0.069,0.1c0.001,0.124,0.031,0.238,0.104,0.338
	c0,0.056,0,0.112,0,0.168c-0.03,0.083-0.079,0.109-0.16,0.057c-1.172-0.742-2.394-1.398-3.564-2.135
	c-1.426-0.896-2.899-1.705-4.318-2.61c-0.582-0.37-1.188-0.714-1.795-1.049c-0.519-0.287-1.016-0.612-1.526-0.915
	c-0.545-0.324-1.095-0.637-1.638-0.961c-0.593-0.353-1.178-0.715-1.769-1.07c-0.567-0.34-1.146-0.661-1.702-1.018
	c-0.583-0.375-1.204-0.684-1.781-1.071c-0.538-0.363-1.121-0.658-1.674-0.999c-0.939-0.578-1.912-1.099-2.835-1.704
	C42.835,0.404,42.55,0.28,42.31,0.084c0.201-0.003,0.402-0.008,0.604-0.008c5.945,0,11.89,0,17.835,0c0.156,0,0.313,0,0.429,0
	C61.318,0.15,61.238,0.303,61.355,0.345z"/>
<path style="fill-rule:evenodd;clip-rule:evenodd;fill:#59C9F0;" d="M37.468,12.071c-0.931-0.484-1.861-0.968-2.792-1.452
	c-1.437-0.747-2.879-1.484-4.307-2.248c-0.564-0.302-1.137-0.584-1.705-0.878c-1.475-0.766-2.948-1.538-4.422-2.307
	c-0.64-0.333-1.285-0.656-1.921-0.998c-1.439-0.773-2.897-1.512-4.344-2.271c-0.642-0.337-1.295-0.65-1.931-0.999
	c-0.423-0.232-0.845-0.466-1.281-0.676c-0.078-0.037-0.147-0.09-0.24-0.074c-0.051-0.026-0.047-0.078-0.003-0.081
	c0.157-0.011,0.315-0.005,0.474-0.005c6.048,0,12.096,0,18.144,0c0.1,0,0.2,0,0.288,0c0.148,0.083,0.125,0.264,0.242,0.351
	c0.013,0.099,0.012,0.203,0.042,0.295c0.183,0.549,0.378,1.094,0.561,1.643c0.799,2.4,1.594,4.801,2.393,7.2
	c0.268,0.804,0.544,1.605,0.817,2.407C37.478,12.01,37.473,12.041,37.468,12.071z"/>
<path style="fill-rule:evenodd;clip-rule:evenodd;fill:#F285B6;" d="M6.079,23.965c-0.326,0.675-0.512,1.398-0.761,2.101
	C5.1,26.678,4.909,27.301,4.7,27.916c-0.035,0.103-0.051,0.223-0.164,0.282c0.01-0.363,0.185-0.681,0.291-1.015
	c0.33-1.037,0.68-2.066,1.025-3.098c0.296-0.883,0.598-1.763,0.893-2.645c0.358-1.07,0.709-2.143,1.066-3.212
	c0.335-1.004,0.687-2.003,1.01-3.011c1.29-4.036,2.663-8.043,3.994-12.065c0.031-0.093,0.07-0.184,0.114-0.296
	c0.141,0.188,0.178,0.393,0.241,0.586c0.428,1.227,0.861,2.451,1.282,3.681c0.567,1.657,1.142,3.311,1.714,4.966
	c0.577,1.667,1.147,3.337,1.729,5.003c0.512,1.466,0.995,2.942,1.492,4.413c0.063,0.188,0.176,0.36,0.154,0.569
	c-0.114-0.037-0.126-0.155-0.157-0.238c-0.327-0.903-0.641-1.811-0.963-2.715c-0.089-0.252-0.193-0.499-0.295-0.761
	c-0.923,0.426-1.824,0.841-2.726,1.256c-1.495,0.69-2.987,1.388-4.489,2.063c-0.389,0.175-0.769,0.368-1.156,0.544
	c-1.163,0.526-2.327,1.05-3.491,1.575C6.183,23.834,6.113,23.879,6.079,23.965z"/>
<path style="fill-rule:evenodd;clip-rule:evenodd;fill:#267EAE;" d="M40.663,21.643c0.033,0.056,0.064,0.113,0.098,0.169
	c0,0.029-0.006,0.06,0.002,0.085c1.042,3.128,2.081,6.256,3.133,9.381c0.178,0.529,0.304,1.078,0.563,1.579
	c0.002,0.085,0.003,0.171,0.006,0.257c-0.132-0.119-0.26-0.044-0.385,0.014c-0.555,0.251-1.104,0.511-1.662,0.75
	c-0.712,0.309-1.435,0.592-2.146,0.9c-0.804,0.349-1.593,0.733-2.402,1.066c-0.81,0.334-1.608,0.692-2.411,1.042
	c-0.673,0.294-1.346,0.587-2.021,0.877c-0.778,0.334-1.558,0.665-2.336,0.996c-0.584,0.249-1.182,0.471-1.749,0.754
	c-0.337,0.168-0.728,0.231-1.016,0.499c-0.029-0.003-0.058-0.005-0.087-0.008c0.003-0.057-0.011-0.122,0.011-0.17
	c0.365-0.809,0.564-1.672,0.854-2.504c0.337-0.965,0.637-1.943,0.952-2.915c0.121-0.372,0.295-0.729,0.341-1.124
	c0.263-0.298,0.455-0.621,0.351-1.042c0.143-0.031,0.019-0.229,0.161-0.26c0.218,0.067,0.197,0.39,0.455,0.423
	c0.125-0.063,0.215-0.173,0.303-0.283c-0.147-0.257-0.465-0.43-0.389-0.821c0.41,0.009,0.777,0.153,1.172,0.214
	c0.115-0.098,0.239-0.204,0.393-0.335c-0.542-0.199-1.068-0.275-1.581-0.407c0.001-0.056,0.002-0.111,0.003-0.167
	c0.105-0.064,0.132-0.179,0.164-0.282c0.093-0.308,0.176-0.618,0.263-0.928c0.36-0.21,0.364-0.221,0.175-0.526
	c0.217-0.635,0.465-1.256,0.659-1.897c0.303-1.003,0.649-1.993,0.98-2.986c0.034-0.103,0.056-0.219,0.165-0.28
	c0.023-0.014,0.061-0.023,0.068-0.043c0.2-0.579,0.344-1.176,0.607-1.733c0.039-0.083,0.014-0.195,0.019-0.295l0,0.002
	c0.261-0.43,0.351-0.923,0.525-1.385c0.084-0.222,0.194-0.437,0.166-0.686l-0.001,0.001c0.013-0.005,0.035-0.008,0.039-0.017
	c0.295-0.697,0.52-1.417,0.74-2.139c0.083,0.05,0.181,0.087,0.249,0.154c0.419,0.42,0.886,0.788,1.325,1.185
	c0.418,0.378,0.852,0.745,1.269,1.125C39.336,20.477,39.972,21.092,40.663,21.643z M36.653,26.107
	c0.377,0.046,0.733,0.055,0.955-0.334c0.072-0.126,0.061-0.671-0.014-0.749c-0.119-0.017-0.244-0.056-0.355,0.035
	c-0.038,0.604-0.038,0.604-0.593,0.674C36.601,25.853,36.6,25.973,36.653,26.107z M36.838,23.987
	c-0.844-0.156-1.158,0.395-0.947,1.083c0.361,0,0.362-0.003,0.381-0.33c0.006-0.109-0.041-0.229,0.084-0.346
	c0.143,0,0.309,0,0.505,0C36.866,24.25,36.902,24.131,36.838,23.987z"/>
<path style="fill-rule:evenodd;clip-rule:evenodd;fill:#9F2063;" d="M18.07,40.192c-5.618,0-11.236,0-16.854-0.001
	c-0.187,0-0.373-0.009-0.56-0.013c0.267-0.248,0.633-0.293,0.943-0.456c0.336-0.177,0.7-0.299,1.048-0.451
	c1.073-0.473,2.144-0.953,3.218-1.424c1.279-0.561,2.563-1.112,3.843-1.674c0.79-0.346,1.568-0.717,2.363-1.05
	c0.976-0.409,1.926-0.876,2.918-1.25c0.368-0.14,0.714-0.341,1.078-0.499c1.332-0.581,2.656-1.177,3.984-1.765
	c0.71-0.314,1.425-0.621,2.132-0.939c0.097-0.044,0.188-0.06,0.288-0.063c-0.29,1.042-0.652,2.061-0.986,3.089
	c-0.505,1.558-1.013,3.113-1.52,4.67c-0.071,0.033-0.142,0.115-0.209-0.005c-0.096-0.174-0.21-0.328-0.389-0.425
	c-0.363,0.39-0.057,0.65,0.156,0.913c-0.19,0.249-0.459,0.362-0.654,0.564c-0.287-0.126-0.323-0.482-0.596-0.586
	c-0.385,0.38-0.076,0.641,0.134,0.888c0,0.127-0.106,0.16-0.129,0.24c-0.003,0.086,0.135,0.106,0.089,0.215
	C18.268,40.179,18.169,40.186,18.07,40.192z"/>
<rect x="48.974" y="9.112" style="fill-rule:evenodd;clip-rule:evenodd;fill:#FBAF41;" width="5.839" height="6.738"/>
<polygon style="fill-rule:evenodd;clip-rule:evenodd;fill:#EF4037;" points="61.289,26.39 66.975,27.933 57.897,34.236
	55.022,30.853 "/>
<polygon style="fill-rule:evenodd;clip-rule:evenodd;fill:#F69420;" points="58.945,23.127 60.347,26.146 67.407,28.048
	69.534,25.302 67.59,19.168 "/>
<polygon style="fill-rule:evenodd;clip-rule:evenodd;fill:#267EAE;" points="37.468,12.071 28.249,40.004 44.459,32.856 "/>
<polygon style="fill-rule:evenodd;clip-rule:evenodd;fill:#273B8E;" points="44.459,32.856 46.795,40 28.249,40.004 "/>
<polygon style="fill-rule:evenodd;clip-rule:evenodd;fill:#EF4037;" points="50.384,23.317 55.934,39.993 70.776,28.922 "/>
<polygon style="fill-rule:evenodd;clip-rule:evenodd;fill:#BE202E;" points="55.934,39.993 74.471,40.01 70.776,28.922 "/>
<polygon style="fill-rule:evenodd;clip-rule:evenodd;fill:#F69420;" points="50.384,23.317 70.776,28.922 65.933,14.175 "/>
<polygon style="fill-rule:evenodd;clip-rule:evenodd;fill:#FBAF41;" points="50.384,23.317 65.933,14.175 42.228,0.076 "/>
<polygon style="fill-rule:evenodd;clip-rule:evenodd;fill:#F7D035;" points="65.933,14.175 61.281,0.076 42.228,0.076 "/>
<polygon style="fill-rule:evenodd;clip-rule:evenodd;fill:#9F2063;" points="0.487,40.17 19.543,40.17 22.474,30.523 "/>
<polygon style="fill-rule:evenodd;clip-rule:evenodd;fill:#D81B5E;" points="0.487,40.17 22.474,30.523 5.853,24.086 "/>
<polygon style="fill-rule:evenodd;clip-rule:evenodd;fill:#EC247D;" points="5.853,24.086 22.474,30.523 18.29,18.243 "/>
<polygon style="fill-rule:evenodd;clip-rule:evenodd;fill:#F285B6;" points="5.853,24.086 18.29,18.243 12.928,2.757 "/>
<polygon style="fill-rule:evenodd;clip-rule:evenodd;fill:#219FCC;" points="28.249,40.004 37.468,12.071 22.367,22.987 "/>
<polygon style="fill-rule:evenodd;clip-rule:evenodd;fill:#2CAAE1;" points="22.367,22.987 37.468,12.071 14.523,0.089 "/>
<polygon style="fill-rule:evenodd;clip-rule:evenodd;fill:#8CC53F;" points="37.515,12.21 40.744,21.812 50.23,30.313 40.634,2.525
	"/>
<polygon style="fill-rule:evenodd;clip-rule:evenodd;fill:#3CB44A;" points="40.744,21.812 50.23,30.313 44.459,32.856 "/>
<polygon style="fill-rule:evenodd;clip-rule:evenodd;fill:#0C9347;" points="50.23,30.313 44.459,32.856 46.795,40 "/>
</svg>
